<svg xmlns="http://www.w3.org/2000/svg" xml:space="preserve" style="fill-rule:evenodd;clip-rule:evenodd;stroke-linejoin:round;stroke-miterlimit:2" viewBox="0 0 120 120"><path d="M-76.764-10.264h941v614h-941z" style="fill:#0079c2" transform="matrix(.85016 0 0 .65147 44.886 -8.902)"/><path d="M-76.764-10.264h941v614h-941z" style="fill:#fff" transform="matrix(.85016 0 0 .2443 44.886 -13.094)"/><path d="M136.127 44.69C130.928 21.933 117.9 3.42 116.104.427c-2.839 4.246-13.23 20.601-18.512 38.696-5.77 20.252-6.619 38.208-4.628 55.816 1.976 17.677 9.444 35.842 9.444 35.842 3.967 9.465 9.91 19.695 13.78 24.706 5.672-7.377 18.707-29.369 22.772-58.043 2.262-16.007 2.359-29.996-2.833-52.754Zm-20.023 105.09c-2.554-4.802-6.521-13.919-6.897-28.116-.097-13.641 5.38-25.403 6.981-27.839 1.427 2.436 6.145 12.667 6.709 26.656.383 13.64-4.155 24.428-6.793 29.299Zm18.513-66.464c-.195 8.7-1.232 17.886-2.554 23.385.473-9.466-.661-22.758-2.833-33.198-2.171-10.37-8.317-27.769-13.223-35.772-4.531 7.656-10.112 22.688-13.035 35.703-2.937 13.014-3.021 28.812-3.021 33.545-.779-3.967-2.728-18.234-2.178-32.501.459-11.762 3.215-23.941 4.725-29.509 5.763-18.582 12.284-30.483 13.509-32.362 1.225 1.879 9.437 16.564 13.696 31.945 4.239 15.38 5.095 30.134 4.914 38.764Z" style="fill:#0079c2;fill-rule:nonzero" transform="translate(24.124 -.81) scale(.48942)"/><path d="M147.311 160.777H85.399v26.516c.035 0 .062-.07.097-.07 9.312-9.326 24.414-9.326 33.733 0 9.312 9.256 9.312 24.359 0 33.685-.042.069-.083.069-.125.139-.049 0-.097.069-.139.139-9.291 9.186-21.429 13.78-33.566 13.78-12.194 0-24.387-4.594-33.685-13.919-16.397-16.355-18.338-41.758-5.839-60.27a48.183 48.183 0 0 1 5.839-7.099c9.298-9.326 21.491-13.92 33.685-13.92V76.009c-46.852 0-84.831 37.93-84.831 84.768s37.979 84.837 84.831 84.837c24.428 0 46.434-10.37 61.912-26.864v-57.973Z" style="fill:#0079c2;fill-rule:nonzero" transform="translate(24.124 -.81) scale(.48942)"/><path d="M-76.764-10.264h941v614h-941z" style="fill:#ed1b34" transform="matrix(.85016 0 0 .65147 44.886 -8.902)"/><path d="M-76.764-10.264h941v614h-941z" style="fill:#fff" transform="matrix(.85016 0 0 .2443 44.886 -13.094)"/><path d="M136.127 44.69C130.928 21.933 117.9 3.42 116.104.427c-2.839 4.246-13.23 20.601-18.512 38.696-5.77 20.252-6.619 38.208-4.628 55.816 1.976 17.677 9.444 35.842 9.444 35.842 3.967 9.465 9.91 19.695 13.78 24.706 5.672-7.377 18.707-29.369 22.772-58.043 2.262-16.007 2.359-29.996-2.833-52.754Zm-20.023 105.09c-2.554-4.802-6.521-13.919-6.897-28.116-.097-13.641 5.38-25.403 6.981-27.839 1.427 2.436 6.145 12.667 6.709 26.656.383 13.64-4.155 24.428-6.793 29.299Zm18.513-66.464c-.195 8.7-1.232 17.886-2.554 23.385.473-9.466-.661-22.758-2.833-33.198-2.171-10.37-8.317-27.769-13.223-35.772-4.531 7.656-10.112 22.688-13.035 35.703-2.937 13.014-3.021 28.812-3.021 33.545-.779-3.967-2.728-18.234-2.178-32.501.459-11.762 3.215-23.941 4.725-29.509 5.763-18.582 12.284-30.483 13.509-32.362 1.225 1.879 9.437 16.564 13.696 31.945 4.239 15.38 5.095 30.134 4.914 38.764Z" style="fill:#0079c2;fill-rule:nonzero" transform="translate(-.543 -.81) scale(.48942)"/><path d="M147.311 160.777H85.399v26.516c.035 0 .062-.07.097-.07 9.312-9.326 24.414-9.326 33.733 0 9.312 9.256 9.312 24.359 0 33.685-.042.069-.083.069-.125.139-.049 0-.097.069-.139.139-9.291 9.186-21.429 13.78-33.566 13.78-12.194 0-24.387-4.594-33.685-13.919-16.397-16.355-18.338-41.758-5.839-60.27a48.183 48.183 0 0 1 5.839-7.099c9.298-9.326 21.491-13.92 33.685-13.92V76.009c-46.852 0-84.831 37.93-84.831 84.768s37.979 84.837 84.831 84.837c24.428 0 46.434-10.37 61.912-26.864v-57.973Z" style="fill:#0079c2;fill-rule:nonzero" transform="translate(-.543 -.81) scale(.48942)"/><path d="M.579 10.779h121.555v121.488H.579z" style="fill:#ed1b34;fill-rule:nonzero" transform="matrix(.9872 0 0 .9872 -.572 -10.641)"/><path d="M102.51 22.903c-2.794 0-4.919 1.833-5.976 4.055L81.229 52.153c-1.057 2.328-1.828 4.943-1.828 6.68 0 1.552.201 2.91.773 4.172l16.547 39.515H32.433c-2.309 0-4.219-2.309-4.219-4.453V29.958c-.485-9.304-13.865-9.304-14.156.281l.281 72.281c0 7.858 6.076 14.156 13.875 14.156h87.656L94.518 62.044c-.582-2.038-.873-3.88.563-6.305l14.156-22.969c.203-.485.469-2.521.469-3.093-.282-4.172-3.538-6.968-7.196-6.774Zm-34.711.023c-3.439.025-6.867 2.38-6.867 7.032v48.75c0 7.072-9.539 6.5-9.539 0v-48.75c0-9.304-13.758-9.304-13.758 0v49.125c0 11.234 8.364 18.703 18.375 18.703 10.293 0 18.68-7.469 18.68-18.703V29.958c0-4.749-3.451-7.056-6.891-7.032Z" style="fill:#fff" transform="matrix(.9872 0 0 .9872 -.572 -10.641)"/></svg>